inDegrees=yes
name=ik_Shooting_orientations
DataType=double
version=3
OpenSimVersion=4.3-2021-08-27-4bc7ad9
endheader
time	pelvis_tilt	pelvis_list	pelvis_rotation	pelvis_tx	pelvis_ty	pelvis_tz	hip_flexion_r	hip_adduction_r	hip_rotation_r	knee_angle_r	knee_angle_r_beta	ankle_angle_r	subtalar_angle_r	mtp_angle_r	hip_flexion_l	hip_adduction_l	hip_rotation_l	knee_angle_l	knee_angle_l_beta	ankle_angle_l	subtalar_angle_l	mtp_angle_l	lumbar_extension	lumbar_bending	lumbar_rotation	arm_flex_r	arm_add_r	arm_rot_r	elbow_flex_r	pro_sup_r	wrist_flex_r	wrist_dev_r	arm_flex_l	arm_add_l	arm_rot_l	elbow_flex_l	pro_sup_l	wrist_flex_l	wrist_dev_l
8.029999999999873	48.66268083612572	-15.80538122236499	56.33420487853903	0	0.9399999999999999	0	44.7356711983189	-9.970351720224484	0	59.82812741469804	1.044197808689164	-4.990258638818369	0	0	44.7356711983189	-9.970351720224484	0	59.82812741469804	1.044197808689164	-4.990258638818369	0	0	0	0	0	0	-13.50380249839743	0	75.38804408587481	44.92053812615716	0	0	0	-13.50380249839743	0	75.38804408587481	44.92053812615716	0	0
8.039999999999873	51.84130874496768	-33.72139455416413	46.30865472422639	0	0.9399999999999999	0	44.73569312427023	-9.970360215837607	0	59.82813871953966	1.044198005995871	-4.990262272299674	0	0	44.73569312427023	-9.970360215837607	0	59.82813871953966	1.044198005995871	-4.990262272299674	0	0	0	0	0	0	-13.50386647186135	0	75.38801191210005	44.9205561727189	0	0	0	-13.50386647186135	0	75.38801191210005	44.9205561727189	0	0
8.049999999999873	55.02571552579903	-11.96542745210518	55.13969203381666	0	0.9399999999999999	0	44.73570319108256	-9.970364012774635	0	59.8281440167153	1.044198098449027	-4.990263887383716	0	0	44.73570319108256	-9.970364012774635	0	59.8281440167153	1.044198098449027	-4.990263887383716	0	0	0	0	0	0	-13.5038962781256	0	75.38799714023551	44.92056427785798	0	0	0	-13.5038962781256	0	75.38799714023551	44.92056427785798	0	0
8.059999999999873	51.69605912905121	-33.77922264440944	46.10179743104523	0	0.9399999999999999	0	44.73572140833128	-9.970371024196607	0	59.82815345491012	1.044198263176602	-4.990266881764155	0	0	44.73572140833128	-9.970371024196607	0	59.82815345491012	1.044198263176602	-4.990266881764155	0	0	0	0	0	0	-13.50394961807055	0	75.38797040855248	44.92057919050706	0	0	0	-13.50394961807055	0	75.38797040855248	44.92057919050706	0	0
8.069999999999872	48.51755268571586	-16.04337650623032	55.94530551187177	0	0.9399999999999999	0	44.7357353879266	-9.970376384680268	0	59.82816071869726	1.044198389953604	-4.990269169408801	0	0	44.7357353879266	-9.970376384680268	0	59.82816071869726	1.044198389953604	-4.990269169408801	0	0	0	0	0	0	-13.50399063628744	0	75.38794989513198	44.92059059930358	0	0	0	-13.50399063628744	0	75.38794989513198	44.92059059930358	0	0
8.079999999999872	35.43290879346826	-3.821766768194921	38.33740064709465	0	0.9399999999999999	0	44.73574526307741	-9.970380075403932	0	59.82816594961085	1.044198481250269	-4.990270736311808	0	0	44.73574526307741	-9.970380075403932	0	59.82816594961085	1.044198481250269	-4.990270736311808	0	0	0	0	0	0	-13.50402001687518	0	75.3879354045108	44.92059849110203	0	0	0	-13.50402001687518	0	75.3879354045108	44.92059849110203	0	0
8.089999999999872	48.44179451253805	-16.15737437472912	55.74528666462733	0	0.9399999999999999	0	44.73575798463926	-9.970384906813456	0	59.8281726063676	1.044198597432592	-4.990272794009352	0	0	44.73575798463926	-9.970384906813456	0	59.8281726063676	1.044198597432592	-4.990272794009352	0	0	0	0	0	0	-13.50405753459665	0	75.3879167371107	44.92060879226145	0	0	0	-13.50405753459665	0	75.3879167371107	44.92060879226145	0	0
8.099999999999872	35.26365098524433	-18.82876958800601	24.71806557901354	0	0.9399999999999999	0	44.73576822622157	-9.970388749650525	0	59.82817801498568	1.044198691830786	-4.990274426750213	0	0	44.73576822622157	-9.970388749650525	0	59.82817801498568	1.044198691830786	-4.990274426750213	0	0	0	0	0	0	-13.50408793968271	0	75.38790170879329	44.92061700351017	0	0	0	-13.50408793968271	0	75.38790170879329	44.92061700351017	0	0
8.109999999999872	46.40160046705959	-13.58197421784185	72.29219659794936	0	0.9399999999999999	0	44.73583709814369	-9.970415426869941	0	59.82821337127262	1.044199308914404	-4.990285819682743	0	0	44.73583709814369	-9.970415426869941	0	59.82821337127262	1.044199308914404	-4.990285819682743	0	0	0	0	0	0	-13.50428833441794	0	75.38780064727843	44.92067371769574	0	0	0	-13.50428833441794	0	75.38780064727843	44.92067371769574	0	0
8.119999999999871	46.97425495772932	0.2272921964656345	105.8617918076436	0	0.9399999999999999	0	44.73584376345674	-9.970417885514047	0	59.82821693393116	1.044199371094525	-4.990286860498975	0	0	44.73584376345674	-9.970417885514047	0	59.82821693393116	1.044199371094525	-4.990286860498975	0	0	0	0	0	0	-13.50430829743959	0	75.3877908667187	44.92067898815726	0	0	0	-13.50430829743959	0	75.3877908667187	44.92067898815726	0	0
8.129999999999871	48.24286232039456	-16.37625068702616	55.29095618690251	0	0.9399999999999999	0	44.73585769022272	-9.970423204357628	0	59.82822418694226	1.04419949768345	-4.990289127987928	0	0	44.73585769022272	-9.970423204357628	0	59.82822418694226	1.04419949768345	-4.990289127987928	0	0	0	0	0	0	-13.50434923472489	0	75.38777043082058	44.92069031794097	0	0	0	-13.50434923472489	0	75.38777043082058	44.92069031794097	0	0
8.139999999999871	48.20048255863991	-16.43294817702424	55.19124555550236	0	0.9399999999999999	0	44.73586522415734	-9.970425982773179	0	59.82822821410515	1.044199567970702	-4.990290304074419	0	0	44.73586522415734	-9.970425982773179	0	59.82822821410515	1.044199567970702	-4.990290304074419	0	0	0	0	0	0	-13.50437180081353	0	75.38775937566129	44.92069627423791	0	0	0	-13.50437180081353	0	75.38775937566129	44.92069627423791	0	0
8.149999999999871	51.00241396132439	-34.01029112673616	45.10749016487402	0	0.9399999999999999	0	44.73588737852095	-9.970434553237236	0	59.82823963671311	1.04419976733282	-4.990293966952422	0	0	44.73588737852095	-9.970434553237236	0	59.82823963671311	1.04419976733282	-4.990293966952422	0	0	0	0	0	0	-13.50443645673073	0	75.38772686671896	44.92071448861601	0	0	0	-13.50443645673073	0	75.38772686671896	44.92071448861601	0	0
8.15999999999987	58.92954349469403	-10.11880624905374	53.17983371494687	0	0.9399999999999999	0	44.73589799028146	-9.970438550060612	0	59.82824521994326	1.044199864778569	-4.990295665912545	0	0	44.73589799028146	-9.970438550060612	0	59.82824521994326	1.044199864778569	-4.990295665912545	0	0	0	0	0	0	-13.50446788144603	0	75.38771129520731	44.92072302428733	0	0	0	-13.50446788144603	0	75.38771129520731	44.92072302428733	0	0
8.16999999999987	57.91756363509613	-10.76253360673926	53.31523767618398	0	0.9399999999999999	0	44.73590446801291	-9.970440942465473	0	59.82824867786803	1.044199925130741	-4.990296678811545	0	0	44.73590446801291	-9.970440942465473	0	59.82824867786803	1.044199925130741	-4.990296678811545	0	0	0	0	0	0	-13.50448726605513	0	75.38770178990114	44.92072815192277	0	0	0	-13.50448726605513	0	75.38770178990114	44.92072815192277	0	0
8.17999999999987	48.0569082377465	-16.6731681104205	54.81262719955927	0	0.9399999999999999	0	44.73591850638734	-9.970446313812722	0	59.82825597593511	1.044200052506041	-4.990298969242673	0	0	44.73591850638734	-9.970446313812722	0	59.82825597593511	1.044200052506041	-4.990298969242673	0	0	0	0	0	0	-13.50452848155972	0	75.38768119022991	44.92073959044588	0	0	0	-13.50452848155972	0	75.38768119022991	44.92073959044588	0	0
8.18999999999987	49.46906580498649	-51.50201959888427	32.72831318929155	0	0.9399999999999999	0	44.73601771605151	-9.970484929034699	0	59.82830672762556	1.04420093829014	-4.990315477452215	0	0	44.73601771605151	-9.970484929034699	0	59.82830672762556	1.04420093829014	-4.990315477452215	0	0	0	0	0	0	-13.5048164588487	0	75.38753561160439	44.92082160853221	0	0	0	-13.5048164588487	0	75.38753561160439	44.92082160853221	0	0
8.19999999999987	46.07804247451052	-14.24158025670398	71.40177222790473	0	0.9399999999999999	0	44.73615043474506	-9.970536437161341	0	59.82837464990907	1.044202123757623	-4.99033747209825	0	0	44.73615043474506	-9.970536437161341	0	59.82837464990907	1.044202123757623	-4.99033747209825	0	0	0	0	0	0	-13.50520189968504	0	75.38734086238824	44.92093110104399	0	0	0	-13.50520189968504	0	75.38734086238824	44.92093110104399	0	0
8.209999999999869	57.82765244730555	-11.02205075565607	52.97690536632788	0	0.9399999999999999	0	44.73616306052627	-9.970541258601141	0	59.8283812135261	1.044202238314351	-4.990339526211786	0	0	44.73616306052627	-9.970541258601141	0	59.8283812135261	1.044202238314351	-4.990339526211786	0	0	0	0	0	0	-13.50523897893914	0	75.38732233553269	44.92094137467218	0	0	0	-13.50523897893914	0	75.38732233553269	44.92094137467218	0	0
8.219999999999869	37.64165881318177	-9.271813724830981	68.06480341899089	0	0.9399999999999999	0	44.73617202918975	-9.970544639743526	0	59.82838592153587	1.044202320484623	-4.990340962974772	0	0	44.73617202918975	-9.970544639743526	0	59.82838592153587	1.044202320484623	-4.990340962974772	0	0	0	0	0	0	-13.50526550340072	0	75.3873091750725	44.92094859611954	0	0	0	-13.50526550340072	0	75.3873091750725	44.92094859611954	0	0
8.229999999999869	64.72542203009579	-7.261794778537232	51.14023543610483	0	0.9399999999999999	0	44.73618128178919	-9.970548126463608	0	59.82839077932808	1.044202405269091	-4.99034244439782	0	0	44.73618128178919	-9.970548126463608	0	59.82839077932808	1.044202405269091	-4.99034244439782	0	0	0	0	0	0	-13.50529287105351	0	75.38729559796974	44.920956043835	0	0	0	-13.50529287105351	0	75.38729559796974	44.920956043835	0	0
8.239999999999869	47.88094178379494	-17.04741956060977	54.29794806913434	0	0.9399999999999999	0	44.73619539905773	-9.9705535137968	0	59.82839812041661	1.044202533395257	-4.990344739119727	0	0	44.73619539905773	-9.9705535137968	0	59.82839812041661	1.044202533395257	-4.990344739119727	0	0	0	0	0	0	-13.50533434082856	0	75.38727488253143	44.92096752512319	0	0	0	-13.50533434082856	0	75.38727488253143	44.92096752512319	0	0
8.249999999999869	42.50516692517058	-12.94255924414242	47.26790483106964	0	0.9399999999999999	0	44.73620527439009	-9.970557178669182	0	59.82840336361672	1.044202624906362	-4.990346291319291	0	0	44.73620527439009	-9.970557178669182	0	59.82840336361672	1.044202624906362	-4.990346291319291	0	0	0	0	0	0	-13.50536378871625	0	75.38726039164548	44.9209753755073	0	0	0	-13.50536378871625	0	75.38726039164548	44.9209753755073	0	0
8.259999999999868	52.9808445577914	-7.232779979643854	74.47771049234829	0	0.9399999999999999	0	44.73621505371408	-9.970560832179578	0	59.828408531423	1.044202715101597	-4.990347840914231	0	0	44.73621505371408	-9.970560832179578	0	59.828408531423	1.044202715101597	-4.990347840914231	0	0	0	0	0	0	-13.50539285111024	0	75.38724604163873	44.92098319171416	0	0	0	-13.50539285111024	0	75.38724604163873	44.92098319171416	0	0
8.269999999999868	54.6620363799215	-13.18859336732616	53.08268211365036	0	0.9399999999999999	0	44.73622830437828	-9.970565873672234	0	59.82841543605083	1.044202835610086	-4.990349986877528	0	0	44.73622830437828	-9.970565873672234	0	59.82841543605083	1.044202835610086	-4.990349986877528	0	0	0	0	0	0	-13.50543183454354	0	75.38722659784193	44.92099394218651	0	0	0	-13.50543183454354	0	75.38722659784193	44.92099394218651	0	0
8.279999999999868	47.75671181584975	-17.29063156265975	53.94523846183218	0	0.9399999999999999	0	44.73624235719927	-9.970571235781756	0	59.82842274197887	1.044202963122585	-4.990352270570012	0	0	44.73624235719927	-9.970571235781756	0	59.82842274197887	1.044202963122585	-4.990352270570012	0	0	0	0	0	0	-13.50547311085473	0	75.38720597697288	44.92100537054166	0	0	0	-13.50547311085473	0	75.38720597697288	44.92100537054166	0	0
8.289999999999868	38.50054033491333	-10.32757303761478	63.53897988681831	0	0.9399999999999999	0	44.73625052402208	-9.970574304646169	0	59.82842703793946	1.044203038101242	-4.990353573618835	0	0	44.73625052402208	-9.970574304646169	0	59.82842703793946	1.044203038101242	-4.990353573618835	0	0	0	0	0	0	-13.50549730221784	0	75.38719399312041	44.92101192929258	0	2.060604960173606e-37	0	-13.50549730221784	0	75.38719399312041	44.92101192929258	0	2.060604960173606e-37
8.299999999999867	47.69642195631558	-17.40826276509124	53.76760256728999	0	0.9399999999999999	0	44.73625915889979	-9.970577553784999	0	59.8284315755052	1.044203117296704	-4.990354953589914	0	0	44.73625915889979	-9.970577553784999	0	59.8284315755052	1.044203117296704	-4.990354953589914	0	0	0	0	0	0	-13.50552286154004	0	75.38718132245209	44.92101887160955	0	0	0	-13.50552286154004	0	75.38718132245209	44.92101887160955	0	0
